STARTFONT 2.1
COMMENT
COMMENT Converted from OpenType font "truongsa_regular.ttf" by "otf2bdf 3.0".
COMMENT
FONT -FreeType-VPS Truong Sa Light Hoa-Medium-R-Normal--25-180-100-100-P-127-ISO10646-1
SIZE 18 100 100
FONTBOUNDINGBOX 23 34 0 -6
STARTPROPERTIES 19
FOUNDRY "FreeType"
FAMILY_NAME "VPS Truong Sa Light Hoa"
WEIGHT_NAME "Medium"
SLANT "R"
SETWIDTH_NAME "Normal"
ADD_STYLE_NAME ""
PIXEL_SIZE 25
POINT_SIZE 180
RESOLUTION_X 100
RESOLUTION_Y 100
SPACING "P"
AVERAGE_WIDTH 127
CHARSET_REGISTRY "ISO10646"
CHARSET_ENCODING "1"
FONT_ASCENT 24
FONT_DESCENT 5
COPYRIGHT "VPS Font"
_OTF_FONTFILE "truongsa_regular.ttf"
_OTF_PSNAME "VPS Truong Sa Light Hoa"
ENDPROPERTIES
CHARS 270
STARTCHAR 0002
ENCODING 2
SWIDTH 640 0
DWIDTH 16 0
BBX 17 22 0 -4
BITMAP
018000
01C000
03C000
02E000
066000
047000
0C3000
0C3000
181800
181800
1FFC00
3FFC00
300C00
200E00
600600
600600
600700
F00F80
000000
010000
038000
030000
ENDCHAR
STARTCHAR 0003
ENCODING 3
SWIDTH 640 0
DWIDTH 16 0
BBX 17 28 0 -4
BITMAP
018000
03C000
026000
042000
000000
000000
018000
01C000
03C000
02E000
066000
047000
0C3000
0C3000
181800
181800
1FFC00
3FFC00
300C00
200E00
600600
600600
600700
F00F80
000000
010000
038000
030000
ENDCHAR
STARTCHAR 0004
ENCODING 4
SWIDTH 640 0
DWIDTH 16 0
BBX 17 27 0 -4
BITMAP
002000
066000
03C000
000000
000000
018000
01C000
03C000
02E000
066000
047000
0C3000
0C3000
181800
181800
1FFC00
3FFC00
300C00
200E00
600600
600600
600700
F00F80
000000
010000
038000
030000
ENDCHAR
STARTCHAR 0005
ENCODING 5
SWIDTH 600 0
DWIDTH 15 0
BBX 14 22 1 -4
BITMAP
FFF8
7038
6008
6000
6000
6000
6000
7FE0
7FE0
6000
6000
6000
6000
6000
6000
700C
787C
FFFC
0000
0200
0700
0600
ENDCHAR
STARTCHAR 0006
ENCODING 6
SWIDTH 600 0
DWIDTH 15 0
BBX 14 28 1 -4
BITMAP
0300
0780
04C0
0840
0000
0000
FFF8
7038
6008
6000
6000
6000
6000
7FE0
7FE0
6000
6000
6000
6000
6000
6000
700C
787C
FFFC
0000
0000
0300
0300
ENDCHAR
STARTCHAR 0015
ENCODING 21
SWIDTH 680 0
DWIDTH 17 0
BBX 18 27 1 -4
BITMAP
000100
000280
000040
000080
000300
F81F00
700E00
600600
600600
600600
600600
600600
600600
600600
600600
600600
600600
600600
600600
600C00
300C00
383800
1FF000
018000
000000
018000
018000
ENDCHAR
STARTCHAR 0019
ENCODING 25
SWIDTH 640 0
DWIDTH 16 0
BBX 16 22 0 -4
BITMAP
F80F
7006
7006
3004
180C
1C18
0E10
0620
0760
03C0
0180
0180
0180
0180
0180
0180
01C0
03E0
0000
0080
01C0
0180
ENDCHAR
STARTCHAR 001C
ENCODING 28
SWIDTH 640 0
DWIDTH 16 0
BBX 17 27 0 0
BITMAP
039000
07E000
000000
018000
03C000
026000
042000
000000
000000
018000
01C000
03C000
02E000
066000
047000
0C3000
0C3000
181800
181800
1FFC00
3FFC00
300C00
200E00
600600
600600
600700
F00F80
ENDCHAR
STARTCHAR 001D
ENCODING 29
SWIDTH 680 0
DWIDTH 17 0
BBX 18 29 1 -1
BITMAP
001000
03F000
06E000
040000
000000
000100
000280
000040
000080
000300
F81F00
700E00
600600
600600
600600
600600
600600
600600
600600
600600
600600
600600
600600
600600
600C00
300C00
383800
1FF000
018000
ENDCHAR
STARTCHAR 0020
ENCODING 32
SWIDTH 240 0
DWIDTH 6 0
BBX 0 0 0 0
BITMAP
ENDCHAR
STARTCHAR 0021
ENCODING 33
SWIDTH 240 0
DWIDTH 6 0
BBX 3 18 2 0
BITMAP
C0
E0
C0
C0
C0
C0
C0
C0
C0
40
40
40
40
00
00
00
E0
E0
ENDCHAR
STARTCHAR 0022
ENCODING 34
SWIDTH 320 0
DWIDTH 8 0
BBX 6 7 1 11
BITMAP
CC
CC
CC
CC
44
44
88
ENDCHAR
STARTCHAR 0023
ENCODING 35
SWIDTH 760 0
DWIDTH 19 0
BBX 16 18 2 0
BITMAP
0184
018C
0108
0318
0318
0210
7FFF
0630
0420
0C60
0860
FFFC
18C0
10C0
3080
3180
2100
6300
ENDCHAR
STARTCHAR 0024
ENCODING 36
SWIDTH 520 0
DWIDTH 13 0
BBX 12 23 1 -3
BITMAP
0400
0600
1F80
36C0
6640
4640
4600
6600
7E00
3E00
0F80
07C0
06E0
0660
0630
C620
C620
4660
36C0
1F00
0600
0600
0400
ENDCHAR
STARTCHAR 0025
ENCODING 37
SWIDTH 840 0
DWIDTH 21 0
BBX 19 19 2 -1
BITMAP
000200
7E0E00
C3FC00
C30800
C18800
C19000
C31000
C32000
766000
084000
008000
009F80
0130C0
013040
023060
063060
0430C0
0C30C0
081F80
ENDCHAR
STARTCHAR 0026
ENCODING 38
SWIDTH 760 0
DWIDTH 19 0
BBX 18 18 1 0
BITMAP
0FC000
184000
306000
306000
306000
38C000
198000
1F0000
1E1F80
360600
670400
C38C00
C1C800
C0F800
C07000
C07800
71FEC0
3F8F80
ENDCHAR
STARTCHAR 0027
ENCODING 39
SWIDTH 160 0
DWIDTH 4 0
BBX 2 7 1 11
BITMAP
C0
C0
C0
C0
C0
40
80
ENDCHAR
STARTCHAR 0028
ENCODING 40
SWIDTH 320 0
DWIDTH 8 0
BBX 4 22 2 -3
BITMAP
10
30
20
60
60
60
40
C0
C0
C0
C0
C0
C0
C0
C0
40
60
60
20
30
30
10
ENDCHAR
STARTCHAR 0029
ENCODING 41
SWIDTH 320 0
DWIDTH 8 0
BBX 4 22 2 -3
BITMAP
80
C0
40
60
60
20
30
30
30
30
30
30
30
30
30
30
20
60
60
40
C0
80
ENDCHAR
STARTCHAR 002A
ENCODING 42
SWIDTH 480 0
DWIDTH 12 0
BBX 9 10 2 8
BITMAP
1800
9800
CB80
F700
0800
7700
CB80
9900
1800
0800
ENDCHAR
STARTCHAR 002B
ENCODING 43
SWIDTH 800 0
DWIDTH 20 0
BBX 15 15 3 0
BITMAP
0100
0100
0100
0100
0100
0100
0100
FFFE
0100
0100
0100
0100
0100
0100
0100
ENDCHAR
STARTCHAR 002C
ENCODING 44
SWIDTH 240 0
DWIDTH 6 0
BBX 3 6 2 -4
BITMAP
E0
E0
20
20
40
80
ENDCHAR
STARTCHAR 002D
ENCODING 45
SWIDTH 320 0
DWIDTH 8 0
BBX 6 2 1 5
BITMAP
FC
FC
ENDCHAR
STARTCHAR 002E
ENCODING 46
SWIDTH 240 0
DWIDTH 6 0
BBX 3 2 2 0
BITMAP
E0
E0
ENDCHAR
STARTCHAR 002F
ENCODING 47
SWIDTH 240 0
DWIDTH 6 0
BBX 7 20 0 -2
BITMAP
06
04
04
04
08
08
08
10
10
10
20
20
20
40
40
40
C0
80
80
80
ENDCHAR
STARTCHAR 0030
ENCODING 48
SWIDTH 520 0
DWIDTH 13 0
BBX 12 18 1 0
BITMAP
1F80
30C0
6060
6060
C060
C070
C030
C030
C030
C030
C030
C030
C070
C060
6060
6060
30C0
1F80
ENDCHAR
STARTCHAR 0031
ENCODING 49
SWIDTH 520 0
DWIDTH 13 0
BBX 9 18 2 0
BITMAP
0C00
7C00
FC00
0C00
0C00
0C00
0C00
0C00
0C00
0C00
0C00
0C00
0C00
0C00
0C00
0C00
1E00
7F80
ENDCHAR
STARTCHAR 0032
ENCODING 50
SWIDTH 520 0
DWIDTH 13 0
BBX 12 18 0 0
BITMAP
1FC0
3070
6030
6030
6030
7030
0070
00E0
01C0
0380
0700
0E00
1C00
1800
3010
6030
7FF0
FFF0
ENDCHAR
STARTCHAR 0033
ENCODING 51
SWIDTH 520 0
DWIDTH 13 0
BBX 12 18 0 0
BITMAP
1FC0
30E0
6060
7070
2070
0060
00E0
0180
0F80
00E0
0070
0030
0030
4030
C030
E070
60E0
3FC0
ENDCHAR
STARTCHAR 0034
ENCODING 52
SWIDTH 520 0
DWIDTH 13 0
BBX 13 18 0 0
BITMAP
00C0
01C0
03C0
06C0
0CC0
18C0
10C0
30C0
20C0
60C0
40C0
C0C0
FFF8
00C0
00C0
00C0
00E0
01F0
ENDCHAR
STARTCHAR 0035
ENCODING 53
SWIDTH 520 0
DWIDTH 13 0
BBX 13 18 0 0
BITMAP
3FE0
3FC0
3000
3000
3000
2000
2000
2FC0
38F0
0030
0038
0038
0038
4038
E030
6070
70E0
3FC0
ENDCHAR
STARTCHAR 0036
ENCODING 54
SWIDTH 520 0
DWIDTH 13 0
BBX 12 18 1 0
BITMAP
03E0
0E00
1800
3000
7000
6000
E000
CFC0
F1E0
E060
C070
C030
C030
C030
E070
6060
30C0
1F80
ENDCHAR
STARTCHAR 0037
ENCODING 55
SWIDTH 520 0
DWIDTH 13 0
BBX 11 18 2 0
BITMAP
FFE0
FFC0
8040
80C0
0080
0180
0180
0300
0300
0600
0600
0600
0C00
0C00
1C00
1800
1800
3800
ENDCHAR
STARTCHAR 0038
ENCODING 56
SWIDTH 520 0
DWIDTH 13 0
BBX 12 18 1 0
BITMAP
3FC0
60E0
4060
C060
C060
E060
70C0
3F00
1F80
3FC0
60E0
C070
C030
8030
C030
C060
60E0
3F80
ENDCHAR
STARTCHAR 0039
ENCODING 57
SWIDTH 520 0
DWIDTH 13 0
BBX 12 18 1 0
BITMAP
3F80
60C0
E060
C060
C070
C030
C030
C030
E070
79F0
3F60
0060
0060
00C0
01C0
0380
0600
7C00
ENDCHAR
STARTCHAR 003A
ENCODING 58
SWIDTH 240 0
DWIDTH 6 0
BBX 3 11 2 0
BITMAP
E0
E0
40
00
00
00
00
00
00
E0
E0
ENDCHAR
STARTCHAR 003B
ENCODING 59
SWIDTH 240 0
DWIDTH 6 0
BBX 3 15 2 -4
BITMAP
C0
E0
40
00
00
00
00
00
00
E0
E0
20
20
40
80
ENDCHAR
STARTCHAR 003C
ENCODING 60
SWIDTH 800 0
DWIDTH 20 0
BBX 15 13 3 1
BITMAP
0006
001E
0070
03C0
0E00
7800
E000
7800
1E00
03C0
00F0
001E
0006
ENDCHAR
STARTCHAR 003D
ENCODING 61
SWIDTH 800 0
DWIDTH 20 0
BBX 15 7 3 4
BITMAP
FFFE
FFFE
0000
0000
0000
FFFE
FFFE
ENDCHAR
STARTCHAR 003E
ENCODING 62
SWIDTH 800 0
DWIDTH 20 0
BBX 15 13 3 1
BITMAP
8000
F000
3C00
0780
01E0
003C
000E
003C
00E0
0780
1E00
F000
C000
ENDCHAR
STARTCHAR 003F
ENCODING 63
SWIDTH 440 0
DWIDTH 11 0
BBX 9 18 1 0
BITMAP
7E00
C300
C180
C180
0180
0180
0180
0300
0E00
1C00
1000
1000
1000
0000
0000
0000
3800
3800
ENDCHAR
STARTCHAR 0040
ENCODING 64
SWIDTH 960 0
DWIDTH 24 0
BBX 21 21 2 -3
BITMAP
007C00
038380
0C0040
180020
300010
200010
407B08
C08708
C18708
830608
830608
860610
860610
860C10
C21420
432440
40C380
200000
100020
0C0040
03FF80
ENDCHAR
STARTCHAR 0041
ENCODING 65
SWIDTH 640 0
DWIDTH 16 0
BBX 17 18 0 0
BITMAP
018000
01C000
03C000
02E000
066000
047000
0C3000
0C3000
181800
181800
1FFC00
3FFC00
300C00
200E00
600600
600600
600700
F00F80
ENDCHAR
STARTCHAR 0042
ENCODING 66
SWIDTH 640 0
DWIDTH 16 0
BBX 15 18 1 0
BITMAP
FFE0
7878
7018
601C
601C
6018
6038
60E0
6FE0
7C38
601C
600E
600E
600E
600E
701C
7CF8
FFF0
ENDCHAR
STARTCHAR 0043
ENCODING 67
SWIDTH 680 0
DWIDTH 17 0
BBX 16 19 1 -1
BITMAP
07FC
1C1E
3806
7002
6002
E000
E000
E000
C000
C000
E000
E000
E000
6000
7003
3806
1E1C
0FF8
00C0
ENDCHAR
STARTCHAR 0044
ENCODING 68
SWIDTH 720 0
DWIDTH 18 0
BBX 16 18 1 0
BITMAP
FFC0
70F8
701C
600E
6006
6007
6007
6003
6003
6003
6003
6007
6007
6006
600E
701C
78F0
FFC0
ENDCHAR
STARTCHAR 0045
ENCODING 69
SWIDTH 600 0
DWIDTH 15 0
BBX 14 18 1 0
BITMAP
FFF8
7038
6008
6000
6000
6000
6000
7FE0
7FE0
6000
6000
6000
6000
6000
6000
700C
787C
FFFC
ENDCHAR
STARTCHAR 0046
ENCODING 70
SWIDTH 560 0
DWIDTH 14 0
BBX 13 18 1 0
BITMAP
FFF8
7078
7008
6000
6000
6000
6000
6020
7FE0
6060
6000
6000
6000
6000
6000
6000
7000
F800
ENDCHAR
STARTCHAR 0047
ENCODING 71
SWIDTH 760 0
DWIDTH 19 0
BBX 17 19 1 -1
BITMAP
07FC00
0E0F00
180300
300300
700100
600000
E00000
E00000
C00000
C01F80
E00380
E00380
E00380
600380
700380
380380
1C0700
0FFC00
004000
ENDCHAR
STARTCHAR 0048
ENCODING 72
SWIDTH 760 0
DWIDTH 19 0
BBX 17 18 1 0
BITMAP
F80F80
700300
600300
600300
600300
600300
600300
7FFF00
7FFF00
600300
600300
600300
600300
600300
600300
600300
700700
F80F80
ENDCHAR
STARTCHAR 0049
ENCODING 73
SWIDTH 240 0
DWIDTH 6 0
BBX 5 18 1 0
BITMAP
F8
70
70
70
70
70
70
70
70
70
70
70
70
70
70
70
70
F8
ENDCHAR
STARTCHAR 004A
ENCODING 74
SWIDTH 440 0
DWIDTH 11 0
BBX 11 19 0 -1
BITMAP
07E0
01C0
0180
0180
0180
0180
0180
0180
0180
0180
0180
0180
7180
E180
8180
8180
C380
7F00
1800
ENDCHAR
STARTCHAR 004B
ENCODING 75
SWIDTH 600 0
DWIDTH 15 0
BBX 15 18 1 0
BITMAP
F87C
7038
6030
6060
60C0
60C0
6180
6300
6780
7DC0
70E0
6060
6030
6038
6018
601C
701C
F83E
ENDCHAR
STARTCHAR 004C
ENCODING 76
SWIDTH 560 0
DWIDTH 14 0
BBX 14 18 1 0
BITMAP
F800
7000
6000
6000
6000
6000
6000
6000
6000
6000
6000
6000
6000
6000
6000
700C
787C
FFF8
ENDCHAR
STARTCHAR 004D
ENCODING 77
SWIDTH 800 0
DWIDTH 20 0
BBX 20 18 0 0
BITMAP
7801F0
3C01E0
3C01C0
3C03C0
3603C0
3606C0
3706C0
3304C0
338CC0
3188C0
3198C0
30D0C0
30F0C0
3060C0
3060C0
3000C0
3000E0
F801F0
ENDCHAR
STARTCHAR 004E
ENCODING 78
SWIDTH 720 0
DWIDTH 18 0
BBX 18 18 0 0
BITMAP
F807C0
3C0300
3E0100
360100
370100
338100
31C100
30C100
306100
307100
303900
301900
300D00
300F00
300700
300300
300300
FC0100
ENDCHAR
STARTCHAR 004F
ENCODING 79
SWIDTH 760 0
DWIDTH 19 0
BBX 17 19 1 -1
BITMAP
07F800
1C1C00
380600
700700
600300
E00380
E00180
E00180
C00180
C00180
C00180
E00180
E00380
600300
700700
380600
1C1C00
0FF800
008000
ENDCHAR
STARTCHAR 0050
ENCODING 80
SWIDTH 600 0
DWIDTH 15 0
BBX 14 18 1 0
BITMAP
FFE0
70F0
7038
601C
601C
601C
6018
6038
6070
6FE0
7F00
6000
6000
6000
6000
6000
7000
F800
ENDCHAR
STARTCHAR 0051
ENCODING 81
SWIDTH 760 0
DWIDTH 19 0
BBX 17 22 1 -4
BITMAP
07F800
1C1C00
380600
700700
600300
E00380
E00180
E00180
C00180
C00180
E00180
E00180
E00380
600300
708700
38C600
1C5C00
0FF800
00F000
001F00
000F80
000300
ENDCHAR
STARTCHAR 0052
ENCODING 82
SWIDTH 640 0
DWIDTH 16 0
BBX 15 18 1 0
BITMAP
FFE0
78F8
701C
601C
601C
601C
6038
6070
67E0
7FC0
60E0
6070
6030
6038
6018
6018
701C
F83E
ENDCHAR
STARTCHAR 0053
ENCODING 83
SWIDTH 560 0
DWIDTH 14 0
BBX 14 18 0 -1
BITMAP
1FE0
3070
2010
6010
6000
7000
7800
3F00
1FF0
03F8
0038
001C
000C
C00C
C008
6018
3030
1FE0
ENDCHAR
STARTCHAR 0054
ENCODING 84
SWIDTH 600 0
DWIDTH 15 0
BBX 15 18 0 0
BITMAP
FFFC
F39E
C386
0380
0380
0380
0380
0380
0380
0380
0380
0380
0380
0380
0380
0380
0380
07C0
ENDCHAR
STARTCHAR 0055
ENCODING 85
SWIDTH 680 0
DWIDTH 17 0
BBX 16 19 1 -1
BITMAP
F81F
700E
6006
6006
6006
6006
6006
6006
6006
6006
6006
6006
6006
6006
600C
300C
3838
1FF0
0180
ENDCHAR
STARTCHAR 0056
ENCODING 86
SWIDTH 640 0
DWIDTH 16 0
BBX 16 18 0 -1
BITMAP
F80F
7007
6006
7006
7006
3004
300C
380C
1808
1818
1C18
0C30
0E30
0620
0760
03C0
03C0
0180
ENDCHAR
STARTCHAR 0057
ENCODING 87
SWIDTH 920 0
DWIDTH 23 0
BBX 23 19 0 -1
BITMAP
F87C3E
70380C
60180C
70380C
303808
303808
303818
302C18
386C10
186C10
184630
18C630
0CC720
0D8360
0D83E0
0F01C0
0701C0
0601C0
000080
ENDCHAR
STARTCHAR 0058
ENCODING 88
SWIDTH 640 0
DWIDTH 16 0
BBX 16 18 0 0
BITMAP
F81E
380C
3808
1818
1C30
0E20
0760
03C0
0380
01C0
03E0
0670
0C38
0818
181C
300E
300E
F81F
ENDCHAR
STARTCHAR 0059
ENCODING 89
SWIDTH 640 0
DWIDTH 16 0
BBX 16 18 0 0
BITMAP
F80F
7006
7006
3004
180C
1C18
0E10
0620
0760
03C0
0180
0180
0180
0180
0180
0180
01C0
03E0
ENDCHAR
STARTCHAR 005A
ENCODING 90
SWIDTH 520 0
DWIDTH 13 0
BBX 13 18 0 0
BITMAP
3FF8
7038
6030
0070
0060
00E0
01C0
0180
0300
0700
0E00
0C00
1800
3800
7000
6008
E078
FFF8
ENDCHAR
STARTCHAR 005B
ENCODING 91
SWIDTH 320 0
DWIDTH 8 0
BBX 5 22 2 -4
BITMAP
F8
C0
C0
C0
C0
C0
C0
C0
C0
C0
C0
C0
C0
C0
C0
C0
C0
C0
C0
C0
F8
78
ENDCHAR
STARTCHAR 005C
ENCODING 92
SWIDTH 240 0
DWIDTH 6 0
BBX 7 20 0 -2
BITMAP
80
80
80
40
40
40
60
20
20
20
10
10
10
08
08
08
04
04
04
02
ENDCHAR
STARTCHAR 005D
ENCODING 93
SWIDTH 320 0
DWIDTH 8 0
BBX 4 22 2 -4
BITMAP
F0
30
30
30
30
30
30
30
30
30
30
30
30
30
30
30
30
30
30
30
F0
F0
ENDCHAR
STARTCHAR 005E
ENCODING 94
SWIDTH 1000 0
DWIDTH 25 0
BBX 13 7 6 11
BITMAP
0700
0F80
1DC0
3060
6030
C018
8008
ENDCHAR
STARTCHAR 005F
ENCODING 95
SWIDTH 480 0
DWIDTH 12 0
BBX 13 2 0 -6
BITMAP
FFF8
FFF8
ENDCHAR
STARTCHAR 0060
ENCODING 96
SWIDTH 480 0
DWIDTH 12 0
BBX 5 5 3 13
BITMAP
80
C0
60
30
08
ENDCHAR
STARTCHAR 0061
ENCODING 97
SWIDTH 640 0
DWIDTH 16 0
BBX 17 18 0 0
BITMAP
018000
01C000
03C000
02E000
066000
047000
0C3000
0C3000
181800
181800
1FFC00
3FFC00
300C00
200E00
600600
600600
600700
F00F80
ENDCHAR
STARTCHAR 0062
ENCODING 98
SWIDTH 640 0
DWIDTH 16 0
BBX 15 18 1 0
BITMAP
FFE0
7878
7018
601C
601C
6018
6038
60E0
6FE0
7C38
601C
600E
600E
600E
600E
701C
7CF8
FFF0
ENDCHAR
STARTCHAR 0063
ENCODING 99
SWIDTH 680 0
DWIDTH 17 0
BBX 16 19 1 -1
BITMAP
07FC
1C1E
3806
7002
6002
E000
E000
E000
C000
C000
E000
E000
E000
6000
7003
3806
1E1C
0FF8
00C0
ENDCHAR
STARTCHAR 0064
ENCODING 100
SWIDTH 720 0
DWIDTH 18 0
BBX 16 18 1 0
BITMAP
FFC0
70F8
701C
600E
6006
6007
6007
6003
6003
6003
6003
6007
6007
6006
600E
701C
78F0
FFC0
ENDCHAR
STARTCHAR 0065
ENCODING 101
SWIDTH 600 0
DWIDTH 15 0
BBX 14 18 1 0
BITMAP
FFF8
7038
6008
6000
6000
6000
6000
7FE0
7FE0
6000
6000
6000
6000
6000
6000
700C
787C
FFFC
ENDCHAR
STARTCHAR 0066
ENCODING 102
SWIDTH 560 0
DWIDTH 14 0
BBX 13 18 1 0
BITMAP
FFF8
7078
7008
6000
6000
6000
6000
6020
7FE0
6060
6000
6000
6000
6000
6000
6000
7000
F800
ENDCHAR
STARTCHAR 0067
ENCODING 103
SWIDTH 760 0
DWIDTH 19 0
BBX 17 19 1 -1
BITMAP
07FC00
0E0F00
180300
300300
700100
600000
E00000
E00000
C00000
C01F80
E00380
E00380
E00380
600380
700380
380380
1C0700
0FFC00
004000
ENDCHAR
STARTCHAR 0068
ENCODING 104
SWIDTH 760 0
DWIDTH 19 0
BBX 17 18 1 0
BITMAP
F80F80
700300
600300
600300
600300
600300
600300
7FFF00
7FFF00
600300
600300
600300
600300
600300
600300
600300
700700
F80F80
ENDCHAR
STARTCHAR 0069
ENCODING 105
SWIDTH 240 0
DWIDTH 6 0
BBX 5 18 1 0
BITMAP
F8
70
70
70
70
70
70
70
70
70
70
70
70
70
70
70
70
F8
ENDCHAR
STARTCHAR 006A
ENCODING 106
SWIDTH 440 0
DWIDTH 11 0
BBX 11 19 0 -1
BITMAP
07E0
01C0
0180
0180
0180
0180
0180
0180
0180
0180
0180
0180
7180
E180
8180
8180
C380
7F00
1800
ENDCHAR
STARTCHAR 006B
ENCODING 107
SWIDTH 600 0
DWIDTH 15 0
BBX 15 18 1 0
BITMAP
F87C
7038
6030
6060
60C0
60C0
6180
6300
6780
7DC0
70E0
6060
6030
6038
6018
601C
701C
F83E
ENDCHAR
STARTCHAR 006C
ENCODING 108
SWIDTH 560 0
DWIDTH 14 0
BBX 14 18 1 0
BITMAP
F800
7000
6000
6000
6000
6000
6000
6000
6000
6000
6000
6000
6000
6000
6000
700C
787C
FFF8
ENDCHAR
STARTCHAR 006D
ENCODING 109
SWIDTH 800 0
DWIDTH 20 0
BBX 20 18 0 0
BITMAP
7801F0
3C01E0
3C01C0
3C03C0
3603C0
3606C0
3706C0
3304C0
338CC0
3188C0
3198C0
30D0C0
30F0C0
3060C0
3060C0
3000C0
3000E0
F801F0
ENDCHAR
STARTCHAR 006E
ENCODING 110
SWIDTH 720 0
DWIDTH 18 0
BBX 18 18 0 0
BITMAP
F807C0
3C0300
3E0100
360100
370100
338100
31C100
30C100
306100
307100
303900
301900
300D00
300F00
300700
300300
300300
FC0100
ENDCHAR
STARTCHAR 006F
ENCODING 111
SWIDTH 760 0
DWIDTH 19 0
BBX 17 19 1 -1
BITMAP
07F800
1C1C00
380600
700700
600300
E00380
E00180
E00180
C00180
C00180
C00180
E00180
E00380
600300
700700
380600
1C1C00
0FF800
008000
ENDCHAR
STARTCHAR 0070
ENCODING 112
SWIDTH 600 0
DWIDTH 15 0
BBX 14 18 1 0
BITMAP
FFE0
70F0
7038
601C
601C
601C
6018
6038
6070
6FE0
7F00
6000
6000
6000
6000
6000
7000
F800
ENDCHAR
STARTCHAR 0071
ENCODING 113
SWIDTH 760 0
DWIDTH 19 0
BBX 17 22 1 -4
BITMAP
07F800
1C1C00
380600
700700
600300
E00380
E00180
E00180
C00180
C00180
E00180
E00180
E00380
600300
708700
38C600
1C5C00
0FF800
00F000
001F00
000F80
000300
ENDCHAR
STARTCHAR 0072
ENCODING 114
SWIDTH 640 0
DWIDTH 16 0
BBX 15 18 1 0
BITMAP
FFE0
78F8
701C
601C
601C
601C
6038
6070
67E0
7FC0
60E0
6070
6030
6038
6018
6018
701C
F83E
ENDCHAR
STARTCHAR 0073
ENCODING 115
SWIDTH 560 0
DWIDTH 14 0
BBX 14 18 0 -1
BITMAP
1FE0
3070
2010
6010
6000
7000
7800
3F00
1FF0
03F8
0038
001C
000C
C00C
C008
6018
3030
1FE0
ENDCHAR
STARTCHAR 0074
ENCODING 116
SWIDTH 600 0
DWIDTH 15 0
BBX 15 18 0 0
BITMAP
FFFC
F39E
C386
0380
0380
0380
0380
0380
0380
0380
0380
0380
0380
0380
0380
0380
0380
07C0
ENDCHAR
STARTCHAR 0075
ENCODING 117
SWIDTH 680 0
DWIDTH 17 0
BBX 16 19 1 -1
BITMAP
F81F
700E
6006
6006
6006
6006
6006
6006
6006
6006
6006
6006
6006
6006
600C
300C
3838
1FF0
0180
ENDCHAR
STARTCHAR 0076
ENCODING 118
SWIDTH 640 0
DWIDTH 16 0
BBX 16 18 0 -1
BITMAP
F80F
7007
6006
7006
7006
3004
300C
380C
1808
1818
1C18
0C30
0E30
0620
0760
03C0
03C0
0180
ENDCHAR
STARTCHAR 0077
ENCODING 119
SWIDTH 920 0
DWIDTH 23 0
BBX 23 19 0 -1
BITMAP
F87C3E
70380C
60180C
70380C
303808
303808
303818
302C18
386C10
186C10
184630
18C630
0CC720
0D8360
0D83E0
0F01C0
0701C0
0601C0
000080
ENDCHAR
STARTCHAR 0078
ENCODING 120
SWIDTH 640 0
DWIDTH 16 0
BBX 16 18 0 0
BITMAP
F81E
380C
3808
1818
1C30
0E20
0760
03C0
0380
01C0
03E0
0670
0C38
0818
181C
300E
300E
F81F
ENDCHAR
STARTCHAR 0079
ENCODING 121
SWIDTH 640 0
DWIDTH 16 0
BBX 16 18 0 0
BITMAP
F80F
7006
7006
3004
180C
1C18
0E10
0620
0760
03C0
0180
0180
0180
0180
0180
0180
01C0
03E0
ENDCHAR
STARTCHAR 007A
ENCODING 122
SWIDTH 520 0
DWIDTH 13 0
BBX 13 18 0 0
BITMAP
3FF8
7038
6030
0070
0060
00E0
01C0
0180
0300
0700
0E00
0C00
1800
3800
7000
6008
E078
FFF8
ENDCHAR
STARTCHAR 007B
ENCODING 123
SWIDTH 480 0
DWIDTH 12 0
BBX 8 21 2 -2
BITMAP
0F
0C
08
08
08
08
08
18
18
30
E0
10
18
08
08
08
08
08
08
0C
07
ENDCHAR
STARTCHAR 007C
ENCODING 124
SWIDTH 480 0
DWIDTH 12 0
BBX 2 25 5 -6
BITMAP
C0
C0
C0
C0
C0
C0
C0
C0
C0
C0
C0
C0
C0
C0
C0
C0
C0
C0
C0
C0
C0
C0
C0
C0
C0
ENDCHAR
STARTCHAR 007D
ENCODING 125
SWIDTH 480 0
DWIDTH 12 0
BBX 8 22 2 -3
BITMAP
80
70
18
18
18
18
18
18
18
08
06
03
0C
18
18
18
18
18
18
18
10
E0
ENDCHAR
STARTCHAR 007E
ENCODING 126
SWIDTH 800 0
DWIDTH 20 0
BBX 17 3 2 6
BITMAP
3F0180
7FE700
C07E00
ENDCHAR
STARTCHAR 0080
ENCODING 128
SWIDTH 640 0
DWIDTH 16 0
BBX 17 24 0 0
BITMAP
060000
070000
018000
00C000
000000
000000
018000
01C000
03C000
02E000
066000
047000
0C3000
0C3000
181800
181800
1FFC00
3FFC00
300C00
200E00
600600
600600
600700
F00F80
ENDCHAR
STARTCHAR 0081
ENCODING 129
SWIDTH 640 0
DWIDTH 16 0
BBX 17 25 0 0
BITMAP
03C000
004000
004000
008000
010000
000000
000000
018000
01C000
03C000
02E000
066000
047000
0C3000
0C3000
181800
181800
1FFC00
3FFC00
300C00
200E00
600600
600600
600700
F00F80
ENDCHAR
STARTCHAR 008D
ENCODING 141
SWIDTH 640 0
DWIDTH 16 0
BBX 17 27 0 0
BITMAP
001800
003000
004000
008000
002000
066000
03C000
000000
000000
018000
01C000
03C000
02E000
066000
047000
0C3000
0C3000
181800
181800
1FFC00
3FFC00
300C00
200E00
600600
600600
600700
F00F80
ENDCHAR
STARTCHAR 008E
ENCODING 142
SWIDTH 640 0
DWIDTH 16 0
BBX 17 27 0 1
BITMAP
1C0000
0E0000
020000
010000
002000
066000
03C000
000000
000000
018000
01C000
03C000
02E000
066000
047000
0C3000
0C3000
181800
181800
1FFC00
3FFC00
300C00
200E00
600600
600600
600700
F00F80
ENDCHAR
STARTCHAR 008F
ENCODING 143
SWIDTH 640 0
DWIDTH 16 0
BBX 17 28 0 0
BITMAP
03C000
004000
004000
008000
010000
002000
066000
03C000
000000
000000
018000
01C000
03C000
02E000
066000
047000
0C3000
0C3000
181800
181800
1FFC00
3FFC00
300C00
200E00
600600
600600
600700
F00F80
ENDCHAR
STARTCHAR 0090
ENCODING 144
SWIDTH 600 0
DWIDTH 15 0
BBX 15 27 1 0
BITMAP
0006
000E
0018
0320
0780
04C0
0840
0000
0000
FFF8
7038
6008
6000
6000
6000
6000
7FE0
7FE0
6000
6000
6000
6000
6000
6000
700C
787C
FFFC
ENDCHAR
STARTCHAR 009D
ENCODING 157
SWIDTH 760 0
DWIDTH 19 0
BBX 17 27 1 -1
BITMAP
000800
003800
003000
004200
008500
000100
000100
000600
07F800
1C1C00
380600
700700
600300
E00380
E00180
E00180
C00180
C00180
C00180
E00180
E00380
600300
700700
380600
1C1C00
0FF800
008000
ENDCHAR
STARTCHAR 009E
ENCODING 158
SWIDTH 760 0
DWIDTH 19 0
BBX 17 27 1 -1
BITMAP
040000
060000
030000
008200
004500
000100
000100
000600
07F800
1C1C00
380600
700700
600300
E00380
E00180
E00180
C00180
C00180
C00180
E00180
E00380
600300
700700
380600
1C1C00
0FF800
008000
ENDCHAR
STARTCHAR 00A0
ENCODING 160
SWIDTH 520 0
DWIDTH 13 0
BBX 0 0 0 0
BITMAP
ENDCHAR
STARTCHAR 00A1
ENCODING 161
SWIDTH 640 0
DWIDTH 16 0
BBX 17 27 0 0
BITMAP
001800
003000
004000
008000
002000
066000
03C000
000000
000000
018000
01C000
03C000
02E000
066000
047000
0C3000
0C3000
181800
181800
1FFC00
3FFC00
300C00
200E00
600600
600600
600700
F00F80
ENDCHAR
STARTCHAR 00A2
ENCODING 162
SWIDTH 640 0
DWIDTH 16 0
BBX 17 27 0 1
BITMAP
1C0000
0E0000
020000
010000
002000
066000
03C000
000000
000000
018000
01C000
03C000
02E000
066000
047000
0C3000
0C3000
181800
181800
1FFC00
3FFC00
300C00
200E00
600600
600600
600700
F00F80
ENDCHAR
STARTCHAR 00A3
ENCODING 163
SWIDTH 640 0
DWIDTH 16 0
BBX 17 28 0 0
BITMAP
03C000
004000
004000
008000
010000
002000
066000
03C000
000000
000000
018000
01C000
03C000
02E000
066000
047000
0C3000
0C3000
181800
181800
1FFC00
3FFC00
300C00
200E00
600600
600600
600700
F00F80
ENDCHAR
STARTCHAR 00A4
ENCODING 164
SWIDTH 640 0
DWIDTH 16 0
BBX 17 27 0 0
BITMAP
039000
07E000
000000
000000
002000
066000
03C000
000000
000000
018000
01C000
03C000
02E000
066000
047000
0C3000
0C3000
181800
181800
1FFC00
3FFC00
300C00
200E00
600600
600600
600700
F00F80
ENDCHAR
STARTCHAR 00A5
ENCODING 165
SWIDTH 640 0
DWIDTH 16 0
BBX 17 27 0 -4
BITMAP
002000
066000
03C000
000000
000000
018000
01C000
03C000
02E000
066000
047000
0C3000
0C3000
181800
181800
1FFC00
3FFC00
300C00
200E00
600600
600600
600700
F00F80
000000
010000
038000
030000
ENDCHAR
STARTCHAR 00A6
ENCODING 166
SWIDTH 760 0
DWIDTH 19 0
BBX 17 28 1 -1
BITMAP
039000
03E000
040000
000000
000200
000500
000100
000100
000600
07F800
1C1C00
380600
700700
600300
E00380
E00180
E00180
C00180
C00180
C00180
E00180
E00380
600300
700700
380600
1C1C00
0FF800
008000
ENDCHAR
STARTCHAR 00A7
ENCODING 167
SWIDTH 760 0
DWIDTH 19 0
BBX 17 27 1 -1
BITMAP
000800
003800
003000
004200
008500
000100
000100
000600
07F800
1C1C00
380600
700700
600300
E00380
E00180
E00180
C00180
C00180
C00180
E00180
E00380
600300
700700
380600
1C1C00
0FF800
008000
ENDCHAR
STARTCHAR 00A8
ENCODING 168
SWIDTH 680 0
DWIDTH 17 0
BBX 16 25 1 -1
BITMAP
0600
0700
0180
00C0
0000
0000
F81F
700E
6006
6006
6006
6006
6006
6006
6006
6006
6006
6006
6006
6006
600C
300C
3838
1FF0
0180
ENDCHAR
STARTCHAR 00A9
ENCODING 169
SWIDTH 760 0
DWIDTH 19 0
BBX 17 27 1 -1
BITMAP
040000
060000
030000
008200
004500
000100
000100
000600
07F800
1C1C00
380600
700700
600300
E00380
E00180
E00180
C00180
C00180
C00180
E00180
E00380
600300
700700
380600
1C1C00
0FF800
008000
ENDCHAR
STARTCHAR 00AA
ENCODING 170
SWIDTH 760 0
DWIDTH 19 0
BBX 17 28 1 -1
BITMAP
00C000
012000
002000
004000
008200
008500
000100
000100
000600
07F800
1C1C00
380600
700700
600300
E00380
E00180
E00180
C00180
C00180
C00180
E00180
E00380
600300
700700
380600
1C1C00
0FF800
008000
ENDCHAR
STARTCHAR 00AB
ENCODING 171
SWIDTH 760 0
DWIDTH 19 0
BBX 17 28 1 -1
BITMAP
039000
03E000
040000
000000
000200
000500
000100
000100
000600
07F800
1C1C00
380600
700700
600300
E00380
E00180
E00180
C00180
C00180
C00180
E00180
E00380
600300
700700
380600
1C1C00
0FF800
008000
ENDCHAR
STARTCHAR 00AC
ENCODING 172
SWIDTH 680 0
DWIDTH 17 0
BBX 16 24 1 -1
BITMAP
0190
03F0
0000
0000
0000
F81F
700E
6006
6006
6006
6006
6006
6006
6006
6006
6006
6006
6006
6006
600C
300C
3838
1FF0
0180
ENDCHAR
STARTCHAR 00AD
ENCODING 173
SWIDTH 680 0
DWIDTH 17 0
BBX 18 27 1 -1
BITMAP
001800
003800
006000
00C100
000280
000040
000080
000300
F81F00
700E00
600600
600600
600600
600600
600600
600600
600600
600600
600600
600600
600600
600600
600C00
300C00
383800
1FF000
018000
ENDCHAR
STARTCHAR 00AE
ENCODING 174
SWIDTH 760 0
DWIDTH 19 0
BBX 17 27 1 -4
BITMAP
000200
000500
000100
000100
000600
07F800
1C1C00
380600
700700
600300
E00380
E00180
E00180
C00180
C00180
C00180
E00180
E00380
600300
700700
380600
1C1C00
0FF800
008000
000000
01C000
01C000
ENDCHAR
STARTCHAR 00AF
ENCODING 175
SWIDTH 680 0
DWIDTH 17 0
BBX 18 27 1 -1
BITMAP
040000
0E0000
070000
018100
004280
000040
000080
000300
F81F00
700E00
600600
600600
600600
600600
600600
600600
600600
600600
600600
600600
600600
600600
600C00
300C00
383800
1FF000
018000
ENDCHAR
STARTCHAR 00B0
ENCODING 176
SWIDTH 760 0
DWIDTH 19 0
BBX 17 29 1 -1
BITMAP
000C00
001200
000200
000600
00C800
01C800
032000
021000
000000
000000
07F800
1C1C00
380600
700700
600300
E00380
E00180
E00180
C00180
C00180
C00180
E00180
E00380
600300
700700
380600
1C1C00
0FF800
008000
ENDCHAR
STARTCHAR 00B1
ENCODING 177
SWIDTH 680 0
DWIDTH 17 0
BBX 18 27 1 -1
BITMAP
00C000
012000
002000
004100
008280
008040
000080
000300
F81F00
700E00
600600
600600
600600
600600
600600
600600
600600
600600
600600
600600
600600
600600
600C00
300C00
383800
1FF000
018000
ENDCHAR
STARTCHAR 00B2
ENCODING 178
SWIDTH 640 0
DWIDTH 16 0
BBX 16 24 0 0
BITMAP
0C00
0E00
0300
0180
0000
0000
F80F
7006
7006
3004
180C
1C18
0E10
0620
0760
03C0
0180
0180
0180
0180
0180
0180
01C0
03E0
ENDCHAR
STARTCHAR 00B3
ENCODING 179
SWIDTH 640 0
DWIDTH 16 0
BBX 16 23 0 0
BITMAP
01D0
03F0
0000
0000
0000
F80F
7006
7006
3004
180C
1C18
0E10
0620
0760
03C0
0180
0180
0180
0180
0180
0180
01C0
03E0
ENDCHAR
STARTCHAR 00B4
ENCODING 180
SWIDTH 240 0
DWIDTH 6 0
BBX 6 24 1 0
BITMAP
0C
18
30
40
00
00
F8
70
70
70
70
70
70
70
70
70
70
70
70
70
70
70
70
F8
ENDCHAR
STARTCHAR 00B5
ENCODING 181
SWIDTH 240 0
DWIDTH 6 0
BBX 6 24 0 0
BITMAP
C0
60
30
08
00
00
7C
38
38
38
38
38
38
38
38
38
38
38
38
38
38
38
38
7C
ENDCHAR
STARTCHAR 00B6
ENCODING 182
SWIDTH 760 0
DWIDTH 19 0
BBX 17 28 1 -4
BITMAP
00C000
01C000
032000
021000
000000
000000
07F800
1C1C00
380600
700700
600300
E00380
E00180
E00180
C00180
C00180
C00180
E00180
E00380
600300
700700
380600
1C1C00
0FF800
008000
000000
01C000
01C000
ENDCHAR
STARTCHAR 00B8
ENCODING 184
SWIDTH 240 0
DWIDTH 6 0
BBX 7 23 0 0
BITMAP
02
FC
88
00
00
7C
38
38
38
38
38
38
38
38
38
38
38
38
38
38
38
38
7C
ENDCHAR
STARTCHAR 00B9
ENCODING 185
SWIDTH 760 0
DWIDTH 19 0
BBX 17 25 1 -1
BITMAP
003000
007000
00C000
010000
000000
000000
07F800
1C1C00
380600
700700
600300
E00380
E00180
E00180
C00180
C00180
C00180
E00180
E00380
600300
700700
380600
1C1C00
0FF800
008000
ENDCHAR
STARTCHAR 00BA
ENCODING 186
SWIDTH 680 0
DWIDTH 17 0
BBX 18 27 1 -1
BITMAP
00C000
012000
002000
004100
008280
008040
000080
000300
F81F00
700E00
600600
600600
600600
600600
600600
600600
600600
600600
600600
600600
600600
600600
600C00
300C00
383800
1FF000
018000
ENDCHAR
STARTCHAR 00BB
ENCODING 187
SWIDTH 680 0
DWIDTH 17 0
BBX 18 29 1 -1
BITMAP
001000
03F000
06E000
040000
000000
000100
000280
000040
000080
000300
F81F00
700E00
600600
600600
600600
600600
600600
600600
600600
600600
600600
600600
600600
600600
600C00
300C00
383800
1FF000
018000
ENDCHAR
STARTCHAR 00BC
ENCODING 188
SWIDTH 760 0
DWIDTH 19 0
BBX 17 25 1 -1
BITMAP
060000
030000
018000
004000
000000
000000
07F800
1C1C00
380600
700700
600300
E00380
E00180
E00180
C00180
C00180
C00180
E00180
E00380
600300
700700
380600
1C1C00
0FF800
008000
ENDCHAR
STARTCHAR 00BD
ENCODING 189
SWIDTH 760 0
DWIDTH 19 0
BBX 17 26 1 -1
BITMAP
01E000
002000
002000
004000
008000
000000
000000
07F800
1C1C00
380600
700700
600300
E00380
E00180
E00180
C00180
C00180
C00180
E00180
E00380
600300
700700
380600
1C1C00
0FF800
008000
ENDCHAR
STARTCHAR 00BE
ENCODING 190
SWIDTH 760 0
DWIDTH 19 0
BBX 17 24 1 -1
BITMAP
03D000
07E000
040000
000000
000000
07F800
1C1C00
380600
700700
600300
E00380
E00180
E00180
C00180
C00180
C00180
E00180
E00380
600300
700700
380600
1C1C00
0FF800
008000
ENDCHAR
STARTCHAR 00BF
ENCODING 191
SWIDTH 680 0
DWIDTH 17 0
BBX 18 27 1 -4
BITMAP
000100
000280
000040
000080
000300
F81F00
700E00
600600
600600
600600
600600
600600
600600
600600
600600
600600
600600
600600
600600
600C00
300C00
383800
1FF000
018000
000000
038000
018000
ENDCHAR
STARTCHAR 00C0
ENCODING 192
SWIDTH 640 0
DWIDTH 16 0
BBX 17 27 0 0
BITMAP
C00000
600000
300000
098000
03C000
026000
042000
000000
000000
018000
01C000
03C000
02E000
066000
047000
0C3000
0C3000
181800
181800
1FFC00
3FFC00
300C00
200E00
600600
600600
600700
F00F80
ENDCHAR
STARTCHAR 00C1
ENCODING 193
SWIDTH 640 0
DWIDTH 16 0
BBX 17 24 0 0
BITMAP
003000
006000
00C000
010000
000000
000000
018000
01C000
03C000
02E000
066000
047000
0C3000
0C3000
181800
181800
1FFC00
3FFC00
300C00
200E00
600600
600600
600700
F00F80
ENDCHAR
STARTCHAR 00C2
ENCODING 194
SWIDTH 640 0
DWIDTH 16 0
BBX 17 24 0 0
BITMAP
018000
03C000
026000
042000
000000
000000
018000
01C000
03C000
02E000
066000
047000
0C3000
0C3000
181800
181800
1FFC00
3FFC00
300C00
200E00
600600
600600
600700
F00F80
ENDCHAR
STARTCHAR 00C3
ENCODING 195
SWIDTH 640 0
DWIDTH 16 0
BBX 17 27 0 0
BITMAP
000100
000300
000600
018800
03D000
026000
042000
000000
000000
018000
01C000
03C000
02E000
066000
047000
0C3000
0C3000
181800
181800
1FFC00
3FFC00
300C00
200E00
600600
600600
600700
F00F80
ENDCHAR
STARTCHAR 00C4
ENCODING 196
SWIDTH 640 0
DWIDTH 16 0
BBX 17 28 0 0
BITMAP
003C00
000400
000400
000800
019000
03C000
026000
042000
000000
000000
018000
01C000
03C000
02E000
066000
047000
0C3000
0C3000
181800
181800
1FFC00
3FFC00
300C00
200E00
600600
600600
600700
F00F80
ENDCHAR
STARTCHAR 00C5
ENCODING 197
SWIDTH 640 0
DWIDTH 16 0
BBX 17 27 0 0
BITMAP
039000
07E000
000000
018000
03C000
026000
042000
000000
000000
018000
01C000
03C000
02E000
066000
047000
0C3000
0C3000
181800
181800
1FFC00
3FFC00
300C00
200E00
600600
600600
600700
F00F80
ENDCHAR
STARTCHAR 00C6
ENCODING 198
SWIDTH 640 0
DWIDTH 16 0
BBX 17 28 0 -4
BITMAP
018000
03C000
026000
042000
000000
000000
018000
01C000
03C000
02E000
066000
047000
0C3000
0C3000
181800
181800
1FFC00
3FFC00
300C00
200E00
600600
600600
600700
F00F80
000000
010000
038000
030000
ENDCHAR
STARTCHAR 00C7
ENCODING 199
SWIDTH 720 0
DWIDTH 18 0
BBX 17 18 0 0
BITMAP
7FF000
383C00
380E00
380700
380300
380380
380180
380180
FF8180
380180
380180
380380
380380
380300
380700
380E00
3C7800
7FE000
ENDCHAR
STARTCHAR 00C8
ENCODING 200
SWIDTH 600 0
DWIDTH 15 0
BBX 14 25 1 0
BITMAP
0780
0080
0080
0100
0200
0000
0000
FFF8
7038
6008
6000
6000
6000
6000
7FE0
7FE0
6000
6000
6000
6000
6000
6000
700C
787C
FFFC
ENDCHAR
STARTCHAR 00C9
ENCODING 201
SWIDTH 600 0
DWIDTH 15 0
BBX 14 24 1 0
BITMAP
0060
00C0
0180
0200
0400
0000
FFF8
7038
6008
6000
6000
6000
6000
7FE0
7FE0
6000
6000
6000
6000
6000
6000
700C
787C
FFFC
ENDCHAR
STARTCHAR 00CA
ENCODING 202
SWIDTH 600 0
DWIDTH 15 0
BBX 14 24 1 0
BITMAP
0300
0780
04C0
0840
0000
0000
FFF8
7038
6008
6000
6000
6000
6000
7FE0
7FE0
6000
6000
6000
6000
6000
6000
700C
787C
FFFC
ENDCHAR
STARTCHAR 00CB
ENCODING 203
SWIDTH 600 0
DWIDTH 15 0
BBX 14 22 1 -4
BITMAP
FFF8
7038
6008
6000
6000
6000
6000
7FE0
7FE0
6000
6000
6000
6000
6000
6000
700C
787C
FFFC
0000
0200
0700
0600
ENDCHAR
STARTCHAR 00CC
ENCODING 204
SWIDTH 240 0
DWIDTH 6 0
BBX 5 25 1 1
BITMAP
58
08
10
20
20
00
00
F8
70
70
70
70
70
70
70
70
70
70
70
70
70
70
70
70
F8
ENDCHAR
STARTCHAR 00CD
ENCODING 205
SWIDTH 600 0
DWIDTH 15 0
BBX 14 27 1 0
BITMAP
0720
0FC0
0000
0300
0780
04C0
0840
0000
0000
FFF8
7038
6008
6000
6000
6000
6000
7FE0
7FE0
6000
6000
6000
6000
6000
6000
700C
787C
FFFC
ENDCHAR
STARTCHAR 00CE
ENCODING 206
SWIDTH 240 0
DWIDTH 6 0
BBX 5 22 1 -4
BITMAP
F8
70
70
70
70
70
70
70
70
70
70
70
70
70
70
70
70
F8
00
00
70
70
ENDCHAR
STARTCHAR 00CF
ENCODING 207
SWIDTH 640 0
DWIDTH 16 0
BBX 16 23 0 0
BITMAP
01D0
03F0
0000
0000
0000
F80F
7006
7006
3004
180C
1C18
0E10
0620
0760
03C0
0180
0180
0180
0180
0180
0180
01C0
03E0
ENDCHAR
STARTCHAR 00D0
ENCODING 208
SWIDTH 680 0
DWIDTH 17 0
BBX 18 24 1 -1
BITMAP
000100
000280
000040
000080
000300
F81F00
700E00
600600
600600
600600
600600
600600
600600
600600
600600
600600
600600
600600
600600
600C00
300C00
383800
1FF000
018000
ENDCHAR
STARTCHAR 00D1
ENCODING 209
SWIDTH 680 0
DWIDTH 17 0
BBX 16 26 1 -1
BITMAP
01E0
0020
0020
00C0
0080
0000
0000
F81F
700E
6006
6006
6006
6006
6006
6006
6006
6006
6006
6006
6006
6006
600C
300C
3838
1FF0
0180
ENDCHAR
STARTCHAR 00D2
ENCODING 210
SWIDTH 760 0
DWIDTH 19 0
BBX 17 28 1 -1
BITMAP
400000
600000
300000
08C000
05C000
032000
021000
000000
000000
07F800
1C1C00
380600
700700
600300
E00380
E00180
E00180
C00180
C00180
C00180
E00180
E00380
600300
700700
380600
1C1C00
0FF800
008000
ENDCHAR
STARTCHAR 00D3
ENCODING 211
SWIDTH 760 0
DWIDTH 19 0
BBX 17 28 1 -1
BITMAP
000180
000300
000600
00C800
01C000
032000
021000
000000
000000
07F800
1C1C00
380600
700700
600300
E00380
E00180
E00180
C00180
C00180
C00180
E00180
E00380
600300
700700
380600
1C1C00
0FF800
008000
ENDCHAR
STARTCHAR 00D4
ENCODING 212
SWIDTH 760 0
DWIDTH 19 0
BBX 17 25 1 -1
BITMAP
00C000
01C000
032000
021000
000000
000000
07F800
1C1C00
380600
700700
600300
E00380
E00180
E00180
C00180
C00180
C00180
E00180
E00380
600300
700700
380600
1C1C00
0FF800
008000
ENDCHAR
STARTCHAR 00D5
ENCODING 213
SWIDTH 760 0
DWIDTH 19 0
BBX 17 26 1 -1
BITMAP
01E000
002000
002000
004000
008000
000000
000000
07F800
1C1C00
380600
700700
600300
E00380
E00180
E00180
C00180
C00180
C00180
E00180
E00380
600300
700700
380600
1C1C00
0FF800
008000
ENDCHAR
STARTCHAR 00D6
ENCODING 214
SWIDTH 760 0
DWIDTH 19 0
BBX 17 24 1 -1
BITMAP
000200
000500
000100
000100
000600
07F800
1C1C00
380600
700700
600300
E00380
E00180
E00180
C00180
C00180
C00180
E00180
E00380
600300
700700
380600
1C1C00
0FF800
008000
ENDCHAR
STARTCHAR 00D7
ENCODING 215
SWIDTH 600 0
DWIDTH 15 0
BBX 14 24 1 0
BITMAP
0C00
0E00
0300
0180
0000
0000
FFF8
7038
6008
6000
6000
6000
6000
7FE0
7FE0
6000
6000
6000
6000
6000
6000
700C
787C
FFFC
ENDCHAR
STARTCHAR 00D8
ENCODING 216
SWIDTH 680 0
DWIDTH 17 0
BBX 18 27 1 -1
BITMAP
040000
0E0000
070000
018100
004280
000040
000080
000300
F81F00
700E00
600600
600600
600600
600600
600600
600600
600600
600600
600600
600600
600600
600600
600C00
300C00
383800
1FF000
018000
ENDCHAR
STARTCHAR 00D9
ENCODING 217
SWIDTH 680 0
DWIDTH 17 0
BBX 18 27 1 -1
BITMAP
001800
003800
006000
00C100
000280
000040
000080
000300
F81F00
700E00
600600
600600
600600
600600
600600
600600
600600
600600
600600
600600
600600
600600
600C00
300C00
383800
1FF000
018000
ENDCHAR
STARTCHAR 00DA
ENCODING 218
SWIDTH 680 0
DWIDTH 17 0
BBX 16 25 1 -1
BITMAP
0030
0060
00C0
0100
0200
0000
F81F
700E
6006
6006
6006
6006
6006
6006
6006
6006
6006
6006
6006
6006
600C
300C
3838
1FF0
0180
ENDCHAR
STARTCHAR 00DB
ENCODING 219
SWIDTH 680 0
DWIDTH 17 0
BBX 16 24 1 -1
BITMAP
0190
03F0
0000
0000
0000
F81F
700E
6006
6006
6006
6006
6006
6006
6006
6006
6006
6006
6006
6006
600C
300C
3838
1FF0
0180
ENDCHAR
STARTCHAR 00DC
ENCODING 220
SWIDTH 680 0
DWIDTH 17 0
BBX 18 24 1 -1
BITMAP
000100
000280
000040
000080
000300
F81F00
700E00
600600
600600
600600
600600
600600
600600
600600
600600
600600
600600
600600
600600
600C00
300C00
383800
1FF000
018000
ENDCHAR
STARTCHAR 00DD
ENCODING 221
SWIDTH 640 0
DWIDTH 16 0
BBX 16 24 0 0
BITMAP
0030
0060
00C0
0100
0000
0000
F80F
7006
7006
3004
180C
1C18
0E10
0620
0760
03C0
0180
0180
0180
0180
0180
0180
01C0
03E0
ENDCHAR
STARTCHAR 00DE
ENCODING 222
SWIDTH 600 0
DWIDTH 15 0
BBX 14 25 1 0
BITMAP
0780
0080
0080
0100
0200
0000
0000
FFF8
7038
6008
6000
6000
6000
6000
7FE0
7FE0
6000
6000
6000
6000
6000
6000
700C
787C
FFFC
ENDCHAR
STARTCHAR 00DF
ENCODING 223
SWIDTH 640 0
DWIDTH 16 0
BBX 16 18 0 0
BITMAP
07F0
181C
180C
300C
300C
300C
301C
31F0
33F8
300C
3006
3006
3203
3607
3406
3606
331C
F9F8
ENDCHAR
STARTCHAR 00E0
ENCODING 224
SWIDTH 640 0
DWIDTH 16 0
BBX 17 24 0 0
BITMAP
060000
070000
018000
00C000
000000
000000
018000
01C000
03C000
02E000
066000
047000
0C3000
0C3000
181800
181800
1FFC00
3FFC00
300C00
200E00
600600
600600
600700
F00F80
ENDCHAR
STARTCHAR 00E1
ENCODING 225
SWIDTH 640 0
DWIDTH 16 0
BBX 17 24 0 0
BITMAP
003000
006000
00C000
010000
000000
000000
018000
01C000
03C000
02E000
066000
047000
0C3000
0C3000
181800
181800
1FFC00
3FFC00
300C00
200E00
600600
600600
600700
F00F80
ENDCHAR
STARTCHAR 00E2
ENCODING 226
SWIDTH 640 0
DWIDTH 16 0
BBX 17 24 0 0
BITMAP
018000
03C000
026000
042000
000000
000000
018000
01C000
03C000
02E000
066000
047000
0C3000
0C3000
181800
181800
1FFC00
3FFC00
300C00
200E00
600600
600600
600700
F00F80
ENDCHAR
STARTCHAR 00E3
ENCODING 227
SWIDTH 640 0
DWIDTH 16 0
BBX 17 23 0 0
BITMAP
03A000
05E000
000000
000000
000000
018000
01C000
03C000
02E000
066000
047000
0C3000
0C3000
181800
181800
1FFC00
3FFC00
300C00
200E00
600600
600600
600700
F00F80
ENDCHAR
STARTCHAR 00E4
ENCODING 228
SWIDTH 640 0
DWIDTH 16 0
BBX 17 25 0 0
BITMAP
03C000
004000
004000
008000
010000
000000
000000
018000
01C000
03C000
02E000
066000
047000
0C3000
0C3000
181800
181800
1FFC00
3FFC00
300C00
200E00
600600
600600
600700
F00F80
ENDCHAR
STARTCHAR 00E5
ENCODING 229
SWIDTH 640 0
DWIDTH 16 0
BBX 17 22 0 -4
BITMAP
018000
01C000
03C000
02E000
066000
047000
0C3000
0C3000
181800
181800
1FFC00
3FFC00
300C00
200E00
600600
600600
600700
F00F80
000000
010000
038000
030000
ENDCHAR
STARTCHAR 00E6
ENCODING 230
SWIDTH 640 0
DWIDTH 16 0
BBX 17 23 0 0
BITMAP
002000
066000
03C000
000000
000000
018000
01C000
03C000
02E000
066000
047000
0C3000
0C3000
181800
181800
1FFC00
3FFC00
300C00
200E00
600600
600600
600700
F00F80
ENDCHAR
STARTCHAR 00E7
ENCODING 231
SWIDTH 680 0
DWIDTH 17 0
BBX 16 23 1 -5
BITMAP
07FC
1C1E
3806
7002
6002
E000
E000
E000
C000
C000
E000
E000
E000
6000
7003
3806
1E1C
0FF8
00C0
00E0
0030
0030
07E0
ENDCHAR
STARTCHAR 00E8
ENCODING 232
SWIDTH 600 0
DWIDTH 15 0
BBX 14 24 1 0
BITMAP
0C00
0E00
0300
0180
0000
0000
FFF8
7038
6008
6000
6000
6000
6000
7FE0
7FE0
6000
6000
6000
6000
6000
6000
700C
787C
FFFC
ENDCHAR
STARTCHAR 00E9
ENCODING 233
SWIDTH 600 0
DWIDTH 15 0
BBX 14 24 1 0
BITMAP
0060
00C0
0180
0200
0400
0000
FFF8
7038
6008
6000
6000
6000
6000
7FE0
7FE0
6000
6000
6000
6000
6000
6000
700C
787C
FFFC
ENDCHAR
STARTCHAR 00EA
ENCODING 234
SWIDTH 600 0
DWIDTH 15 0
BBX 14 24 1 0
BITMAP
0300
0780
04C0
0840
0000
0000
FFF8
7038
6008
6000
6000
6000
6000
7FE0
7FE0
6000
6000
6000
6000
6000
6000
700C
787C
FFFC
ENDCHAR
STARTCHAR 00EB
ENCODING 235
SWIDTH 600 0
DWIDTH 15 0
BBX 14 23 1 0
BITMAP
0040
0FC0
1100
0000
0000
FFF8
7038
6008
6000
6000
6000
6000
7FE0
7FE0
6000
6000
6000
6000
6000
6000
700C
787C
FFFC
ENDCHAR
STARTCHAR 00EC
ENCODING 236
SWIDTH 240 0
DWIDTH 6 0
BBX 6 24 0 0
BITMAP
C0
60
30
08
00
00
7C
38
38
38
38
38
38
38
38
38
38
38
38
38
38
38
38
7C
ENDCHAR
STARTCHAR 00ED
ENCODING 237
SWIDTH 240 0
DWIDTH 6 0
BBX 6 24 1 0
BITMAP
0C
18
30
40
00
00
F8
70
70
70
70
70
70
70
70
70
70
70
70
70
70
70
70
F8
ENDCHAR
STARTCHAR 00EE
ENCODING 238
SWIDTH 240 0
DWIDTH 6 0
BBX 7 24 0 0
BITMAP
38
38
4C
82
00
00
7C
38
38
38
38
38
38
38
38
38
38
38
38
38
38
38
38
7C
ENDCHAR
STARTCHAR 00EF
ENCODING 239
SWIDTH 240 0
DWIDTH 6 0
BBX 7 23 0 0
BITMAP
02
FC
88
00
00
7C
38
38
38
38
38
38
38
38
38
38
38
38
38
38
38
38
7C
ENDCHAR
STARTCHAR 00F0
ENCODING 240
SWIDTH 640 0
DWIDTH 16 0
BBX 17 27 0 0
BITMAP
039000
07E000
000000
000000
002000
066000
03C000
000000
000000
018000
01C000
03C000
02E000
066000
047000
0C3000
0C3000
181800
181800
1FFC00
3FFC00
300C00
200E00
600600
600600
600700
F00F80
ENDCHAR
STARTCHAR 00F1
ENCODING 241
SWIDTH 720 0
DWIDTH 18 0
BBX 17 18 0 0
BITMAP
7FF000
383C00
380E00
380700
380300
380380
380180
380180
FF8180
380180
380180
380380
380380
380300
380700
380E00
3C7800
7FE000
ENDCHAR
STARTCHAR 00F2
ENCODING 242
SWIDTH 760 0
DWIDTH 19 0
BBX 17 25 1 -1
BITMAP
060000
030000
018000
004000
000000
000000
07F800
1C1C00
380600
700700
600300
E00380
E00180
E00180
C00180
C00180
C00180
E00180
E00380
600300
700700
380600
1C1C00
0FF800
008000
ENDCHAR
STARTCHAR 00F3
ENCODING 243
SWIDTH 760 0
DWIDTH 19 0
BBX 17 25 1 -1
BITMAP
003000
007000
00C000
010000
000000
000000
07F800
1C1C00
380600
700700
600300
E00380
E00180
E00180
C00180
C00180
C00180
E00180
E00380
600300
700700
380600
1C1C00
0FF800
008000
ENDCHAR
STARTCHAR 00F4
ENCODING 244
SWIDTH 760 0
DWIDTH 19 0
BBX 17 25 1 -1
BITMAP
00C000
01C000
032000
021000
000000
000000
07F800
1C1C00
380600
700700
600300
E00380
E00180
E00180
C00180
C00180
C00180
E00180
E00380
600300
700700
380600
1C1C00
0FF800
008000
ENDCHAR
STARTCHAR 00F5
ENCODING 245
SWIDTH 760 0
DWIDTH 19 0
BBX 17 24 1 -1
BITMAP
03D000
07E000
040000
000000
000000
07F800
1C1C00
380600
700700
600300
E00380
E00180
E00180
C00180
C00180
C00180
E00180
E00380
600300
700700
380600
1C1C00
0FF800
008000
ENDCHAR
STARTCHAR 00F6
ENCODING 246
SWIDTH 760 0
DWIDTH 19 0
BBX 17 24 1 -1
BITMAP
023000
073000
000000
000000
000000
07F800
1C1C00
380600
700700
600300
E00380
E00180
E00180
C00180
C00180
C00180
E00180
E00380
600300
700700
380600
1C1C00
0FF800
008000
ENDCHAR
STARTCHAR 00F7
ENCODING 247
SWIDTH 760 0
DWIDTH 19 0
BBX 17 24 1 -1
BITMAP
000200
000500
000100
000100
000600
07F800
1C1C00
380600
700700
600300
E00380
E00180
E00180
C00180
C00180
C00180
E00180
E00380
600300
700700
380600
1C1C00
0FF800
008000
ENDCHAR
STARTCHAR 00F8
ENCODING 248
SWIDTH 680 0
DWIDTH 17 0
BBX 16 22 1 -4
BITMAP
F81F
700E
6006
6006
6006
6006
6006
6006
6006
6006
6006
6006
6006
6006
600C
300C
3838
1FF0
0180
0000
0380
0380
ENDCHAR
STARTCHAR 00F9
ENCODING 249
SWIDTH 680 0
DWIDTH 17 0
BBX 16 25 1 -1
BITMAP
0600
0700
0180
00C0
0000
0000
F81F
700E
6006
6006
6006
6006
6006
6006
6006
6006
6006
6006
6006
6006
600C
300C
3838
1FF0
0180
ENDCHAR
STARTCHAR 00FA
ENCODING 250
SWIDTH 680 0
DWIDTH 17 0
BBX 16 25 1 -1
BITMAP
0030
0060
00C0
0100
0200
0000
F81F
700E
6006
6006
6006
6006
6006
6006
6006
6006
6006
6006
6006
6006
600C
300C
3838
1FF0
0180
ENDCHAR
STARTCHAR 00FB
ENCODING 251
SWIDTH 680 0
DWIDTH 17 0
BBX 16 26 1 -1
BITMAP
01E0
0020
0020
00C0
0080
0000
0000
F81F
700E
6006
6006
6006
6006
6006
6006
6006
6006
6006
6006
6006
6006
600C
300C
3838
1FF0
0180
ENDCHAR
STARTCHAR 00FC
ENCODING 252
SWIDTH 680 0
DWIDTH 17 0
BBX 16 24 1 -1
BITMAP
0660
0660
0000
0000
0000
F81F
700E
6006
6006
6006
6006
6006
6006
6006
6006
6006
6006
6006
6006
600C
300C
3838
1FF0
0180
ENDCHAR
STARTCHAR 00FD
ENCODING 253
SWIDTH 640 0
DWIDTH 16 0
BBX 16 25 0 0
BITMAP
03C0
0040
0040
0080
0100
0000
0000
F80F
7006
7006
3004
180C
1C18
0E10
0620
0760
03C0
0180
0180
0180
0180
0180
0180
01C0
03E0
ENDCHAR
STARTCHAR 00FE
ENCODING 254
SWIDTH 600 0
DWIDTH 15 0
BBX 14 23 1 0
BITMAP
0040
0FC0
1100
0000
0000
FFF8
7038
6008
6000
6000
6000
6000
7FE0
7FE0
6000
6000
6000
6000
6000
6000
700C
787C
FFFC
ENDCHAR
STARTCHAR 00FF
ENCODING 255
SWIDTH 640 0
DWIDTH 16 0
BBX 16 24 0 0
BITMAP
0C00
0E00
0300
0180
0000
0000
F80F
7006
7006
3004
180C
1C18
0E10
0620
0760
03C0
0180
0180
0180
0180
0180
0180
01C0
03E0
ENDCHAR
STARTCHAR 0106
ENCODING 262
SWIDTH 680 0
DWIDTH 17 0
BBX 0 0 0 0
BITMAP
ENDCHAR
STARTCHAR 0107
ENCODING 263
SWIDTH 440 0
DWIDTH 11 0
BBX 0 0 0 0
BITMAP
ENDCHAR
STARTCHAR 010C
ENCODING 268
SWIDTH 680 0
DWIDTH 17 0
BBX 0 0 0 0
BITMAP
ENDCHAR
STARTCHAR 010D
ENCODING 269
SWIDTH 440 0
DWIDTH 11 0
BBX 0 0 0 0
BITMAP
ENDCHAR
STARTCHAR 0111
ENCODING 273
SWIDTH 560 0
DWIDTH 14 0
BBX 0 0 0 0
BITMAP
ENDCHAR
STARTCHAR 011E
ENCODING 286
SWIDTH 760 0
DWIDTH 19 0
BBX 0 0 0 0
BITMAP
ENDCHAR
STARTCHAR 011F
ENCODING 287
SWIDTH 480 0
DWIDTH 12 0
BBX 0 0 0 0
BITMAP
ENDCHAR
STARTCHAR 0130
ENCODING 304
SWIDTH 240 0
DWIDTH 6 0
BBX 0 0 0 0
BITMAP
ENDCHAR
STARTCHAR 0131
ENCODING 305
SWIDTH 240 0
DWIDTH 6 0
BBX 0 0 0 0
BITMAP
ENDCHAR
STARTCHAR 0141
ENCODING 321
SWIDTH 560 0
DWIDTH 14 0
BBX 0 0 0 0
BITMAP
ENDCHAR
STARTCHAR 0142
ENCODING 322
SWIDTH 200 0
DWIDTH 5 0
BBX 0 0 0 0
BITMAP
ENDCHAR
STARTCHAR 0152
ENCODING 338
SWIDTH 600 0
DWIDTH 15 0
BBX 14 28 1 -4
BITMAP
0300
0780
04C0
0840
0000
0000
FFF8
7038
6008
6000
6000
6000
6000
7FE0
7FE0
6000
6000
6000
6000
6000
6000
700C
787C
FFFC
0000
0000
0300
0300
ENDCHAR
STARTCHAR 0153
ENCODING 339
SWIDTH 640 0
DWIDTH 16 0
BBX 16 22 0 -4
BITMAP
F80F
7006
7006
3004
180C
1C18
0E10
0620
0760
03C0
0180
0180
0180
0180
0180
0180
01C0
03E0
0000
0080
01C0
0180
ENDCHAR
STARTCHAR 015E
ENCODING 350
SWIDTH 560 0
DWIDTH 14 0
BBX 0 0 0 0
BITMAP
ENDCHAR
STARTCHAR 015F
ENCODING 351
SWIDTH 360 0
DWIDTH 9 0
BBX 0 0 0 0
BITMAP
ENDCHAR
STARTCHAR 0160
ENCODING 352
SWIDTH 600 0
DWIDTH 15 0
BBX 15 27 0 0
BITMAP
C000
6000
3000
0980
03C0
0260
0420
0000
0000
7FFC
381C
3004
3000
3000
3000
3000
3FF0
3FF0
3000
3000
3000
3000
3000
3000
3806
3C3E
7FFE
ENDCHAR
STARTCHAR 0161
ENCODING 353
SWIDTH 640 0
DWIDTH 16 0
BBX 16 24 0 0
BITMAP
0030
0060
00C0
0100
0000
0000
F80F
7006
7006
3004
180C
1C18
0E10
0620
0760
03C0
0180
0180
0180
0180
0180
0180
01C0
03E0
ENDCHAR
STARTCHAR 0178
ENCODING 376
SWIDTH 760 0
DWIDTH 19 0
BBX 17 28 1 -1
BITMAP
00C000
012000
002000
004000
008200
008500
000100
000100
000600
07F800
1C1C00
380600
700700
600300
E00380
E00180
E00180
C00180
C00180
C00180
E00180
E00380
600300
700700
380600
1C1C00
0FF800
008000
ENDCHAR
STARTCHAR 017D
ENCODING 381
SWIDTH 520 0
DWIDTH 13 0
BBX 0 0 0 0
BITMAP
ENDCHAR
STARTCHAR 017E
ENCODING 382
SWIDTH 360 0
DWIDTH 9 0
BBX 0 0 0 0
BITMAP
ENDCHAR
STARTCHAR 0192
ENCODING 402
SWIDTH 640 0
DWIDTH 16 0
BBX 17 27 0 0
BITMAP
000100
000300
000600
018800
03D000
026000
042000
000000
000000
018000
01C000
03C000
02E000
066000
047000
0C3000
0C3000
181800
181800
1FFC00
3FFC00
300C00
200E00
600600
600600
600700
F00F80
ENDCHAR
STARTCHAR 02C6
ENCODING 710
SWIDTH 640 0
DWIDTH 16 0
BBX 17 23 0 0
BITMAP
002000
066000
03C000
000000
000000
018000
01C000
03C000
02E000
066000
047000
0C3000
0C3000
181800
181800
1FFC00
3FFC00
300C00
200E00
600600
600600
600700
F00F80
ENDCHAR
STARTCHAR 02C7
ENCODING 711
SWIDTH 480 0
DWIDTH 12 0
BBX 0 0 0 0
BITMAP
ENDCHAR
STARTCHAR 02DA
ENCODING 730
SWIDTH 480 0
DWIDTH 12 0
BBX 0 0 0 0
BITMAP
ENDCHAR
STARTCHAR 02DB
ENCODING 731
SWIDTH 480 0
DWIDTH 12 0
BBX 0 0 0 0
BITMAP
ENDCHAR
STARTCHAR 02DC
ENCODING 732
SWIDTH 760 0
DWIDTH 19 0
BBX 17 29 1 -1
BITMAP
000C00
001200
000200
000600
00C800
01C800
032000
021000
000000
000000
07F800
1C1C00
380600
700700
600300
E00380
E00180
E00180
C00180
C00180
C00180
E00180
E00380
600300
700700
380600
1C1C00
0FF800
008000
ENDCHAR
STARTCHAR 03A9
ENCODING 937
SWIDTH 760 0
DWIDTH 19 0
BBX 0 0 0 0
BITMAP
ENDCHAR
STARTCHAR 03C0
ENCODING 960
SWIDTH 640 0
DWIDTH 16 0
BBX 0 0 0 0
BITMAP
ENDCHAR
STARTCHAR 2013
ENCODING 8211
SWIDTH 760 0
DWIDTH 19 0
BBX 17 28 1 -1
BITMAP
000180
000300
000600
00C800
01C000
032000
021000
000000
000000
07F800
1C1C00
380600
700700
600300
E00380
E00180
E00180
C00180
C00180
C00180
E00180
E00380
600300
700700
380600
1C1C00
0FF800
008000
ENDCHAR
STARTCHAR 2014
ENCODING 8212
SWIDTH 760 0
DWIDTH 19 0
BBX 17 28 1 -1
BITMAP
400000
600000
300000
08C000
05C000
032000
021000
000000
000000
07F800
1C1C00
380600
700700
600300
E00380
E00180
E00180
C00180
C00180
C00180
E00180
E00380
600300
700700
380600
1C1C00
0FF800
008000
ENDCHAR
STARTCHAR 2018
ENCODING 8216
SWIDTH 240 0
DWIDTH 6 0
BBX 3 6 2 13
BITMAP
20
40
80
E0
E0
60
ENDCHAR
STARTCHAR 2019
ENCODING 8217
SWIDTH 240 0
DWIDTH 6 0
BBX 3 6 1 12
BITMAP
E0
E0
20
20
20
40
ENDCHAR
STARTCHAR 201A
ENCODING 8218
SWIDTH 640 0
DWIDTH 16 0
BBX 17 23 0 0
BITMAP
03A000
05E000
000000
000000
000000
018000
01C000
03C000
02E000
066000
047000
0C3000
0C3000
181800
181800
1FFC00
3FFC00
300C00
200E00
600600
600600
600700
F00F80
ENDCHAR
STARTCHAR 201C
ENCODING 8220
SWIDTH 600 0
DWIDTH 15 0
BBX 15 27 0 0
BITMAP
C000
6000
3000
0980
03C0
0260
0420
0000
0000
7FFC
381C
3004
3000
3000
3000
3000
3FF0
3FF0
3000
3000
3000
3000
3000
3000
3806
3C3E
7FFE
ENDCHAR
STARTCHAR 201D
ENCODING 8221
SWIDTH 600 0
DWIDTH 15 0
BBX 14 28 1 0
BITMAP
0038
0008
0008
0018
0320
0780
04C0
0840
0000
0000
FFF8
7038
6008
6000
6000
6000
6000
7FE0
7FE0
6000
6000
6000
6000
6000
6000
700C
787C
FFFC
ENDCHAR
STARTCHAR 201E
ENCODING 8222
SWIDTH 640 0
DWIDTH 16 0
BBX 17 27 0 0
BITMAP
C00000
600000
300000
098000
03C000
026000
042000
000000
000000
018000
01C000
03C000
02E000
066000
047000
0C3000
0C3000
181800
181800
1FFC00
3FFC00
300C00
200E00
600600
600600
600700
F00F80
ENDCHAR
STARTCHAR 2020
ENCODING 8224
SWIDTH 760 0
DWIDTH 19 0
BBX 17 22 1 -4
BITMAP
07F800
1C1C00
380600
700700
600300
E00380
E00180
E00180
C00180
C00180
C00180
E00180
E00380
600300
700700
380600
1C1C00
0FF800
008000
000000
01C000
01C000
ENDCHAR
STARTCHAR 2021
ENCODING 8225
SWIDTH 760 0
DWIDTH 19 0
BBX 17 28 1 -1
BITMAP
039000
07E000
040000
00C000
01C000
032000
021000
000000
000000
07F800
1C1C00
380600
700700
600300
E00380
E00180
E00180
C00180
C00180
C00180
E00180
E00380
600300
700700
380600
1C1C00
0FF800
008000
ENDCHAR
STARTCHAR 2022
ENCODING 8226
SWIDTH 600 0
DWIDTH 15 0
BBX 14 27 1 0
BITMAP
0720
0FC0
0000
0300
0780
04C0
0840
0000
0000
FFF8
7038
6008
6000
6000
6000
6000
7FE0
7FE0
6000
6000
6000
6000
6000
6000
700C
787C
FFFC
ENDCHAR
STARTCHAR 2026
ENCODING 8230
SWIDTH 640 0
DWIDTH 16 0
BBX 17 28 0 0
BITMAP
003C00
000400
000400
000800
019000
03C000
026000
042000
000000
000000
018000
01C000
03C000
02E000
066000
047000
0C3000
0C3000
181800
181800
1FFC00
3FFC00
300C00
200E00
600600
600600
600700
F00F80
ENDCHAR
STARTCHAR 2030
ENCODING 8240
SWIDTH 600 0
DWIDTH 15 0
BBX 15 27 1 0
BITMAP
0006
000E
0018
0320
0780
04C0
0840
0000
0000
FFF8
7038
6008
6000
6000
6000
6000
7FE0
7FE0
6000
6000
6000
6000
6000
6000
700C
787C
FFFC
ENDCHAR
STARTCHAR 2039
ENCODING 8249
SWIDTH 600 0
DWIDTH 15 0
BBX 14 28 1 0
BITMAP
0038
0008
0008
0018
0320
0780
04C0
0840
0000
0000
FFF8
7038
6008
6000
6000
6000
6000
7FE0
7FE0
6000
6000
6000
6000
6000
6000
700C
787C
FFFC
ENDCHAR
STARTCHAR 203A
ENCODING 8250
SWIDTH 640 0
DWIDTH 16 0
BBX 16 25 0 0
BITMAP
03C0
0040
0040
0080
0100
0000
0000
F80F
7006
7006
3004
180C
1C18
0E10
0620
0760
03C0
0180
0180
0180
0180
0180
0180
01C0
03E0
ENDCHAR
STARTCHAR 20A3
ENCODING 8355
SWIDTH 880 0
DWIDTH 22 0
BBX 0 0 0 0
BITMAP
ENDCHAR
STARTCHAR 2122
ENCODING 8482
SWIDTH 760 0
DWIDTH 19 0
BBX 17 28 1 -1
BITMAP
039000
07E000
040000
00C000
01C000
032000
021000
000000
000000
07F800
1C1C00
380600
700700
600300
E00380
E00180
E00180
C00180
C00180
C00180
E00180
E00380
600300
700700
380600
1C1C00
0FF800
008000
ENDCHAR
STARTCHAR 2202
ENCODING 8706
SWIDTH 480 0
DWIDTH 12 0
BBX 0 0 0 0
BITMAP
ENDCHAR
STARTCHAR 2206
ENCODING 8710
SWIDTH 560 0
DWIDTH 14 0
BBX 0 0 0 0
BITMAP
ENDCHAR
STARTCHAR 220F
ENCODING 8719
SWIDTH 760 0
DWIDTH 19 0
BBX 0 0 0 0
BITMAP
ENDCHAR
STARTCHAR 2211
ENCODING 8721
SWIDTH 680 0
DWIDTH 17 0
BBX 0 0 0 0
BITMAP
ENDCHAR
STARTCHAR 2212
ENCODING 8722
SWIDTH 800 0
DWIDTH 20 0
BBX 0 0 0 0
BITMAP
ENDCHAR
STARTCHAR 2215
ENCODING 8725
SWIDTH 160 0
DWIDTH 4 0
BBX 0 0 0 0
BITMAP
ENDCHAR
STARTCHAR 2219
ENCODING 8729
SWIDTH 240 0
DWIDTH 6 0
BBX 5 25 1 1
BITMAP
58
08
10
20
20
00
00
F8
70
70
70
70
70
70
70
70
70
70
70
70
70
70
70
70
F8
ENDCHAR
STARTCHAR 221A
ENCODING 8730
SWIDTH 600 0
DWIDTH 15 0
BBX 0 0 0 0
BITMAP
ENDCHAR
STARTCHAR 221E
ENCODING 8734
SWIDTH 800 0
DWIDTH 20 0
BBX 0 0 0 0
BITMAP
ENDCHAR
STARTCHAR 222B
ENCODING 8747
SWIDTH 480 0
DWIDTH 12 0
BBX 0 0 0 0
BITMAP
ENDCHAR
STARTCHAR 2248
ENCODING 8776
SWIDTH 800 0
DWIDTH 20 0
BBX 0 0 0 0
BITMAP
ENDCHAR
STARTCHAR 2260
ENCODING 8800
SWIDTH 800 0
DWIDTH 20 0
BBX 0 0 0 0
BITMAP
ENDCHAR
STARTCHAR 2264
ENCODING 8804
SWIDTH 800 0
DWIDTH 20 0
BBX 0 0 0 0
BITMAP
ENDCHAR
STARTCHAR 2265
ENCODING 8805
SWIDTH 800 0
DWIDTH 20 0
BBX 0 0 0 0
BITMAP
ENDCHAR
STARTCHAR 25CA
ENCODING 9674
SWIDTH 480 0
DWIDTH 12 0
BBX 0 0 0 0
BITMAP
ENDCHAR
STARTCHAR F000
ENCODING 61440
SWIDTH 760 0
DWIDTH 19 0
BBX 0 0 0 0
BITMAP
ENDCHAR
STARTCHAR F001
ENCODING 61441
SWIDTH 520 0
DWIDTH 13 0
BBX 0 0 0 0
BITMAP
ENDCHAR
STARTCHAR F002
ENCODING 61442
SWIDTH 480 0
DWIDTH 12 0
BBX 0 0 0 0
BITMAP
ENDCHAR
ENDFONT
